<?xml version="1.0" encoding="iso-8859-1"?>
<!-- Uploaded to: SVG Repo, www.svgrepo.com, Generator: SVG Repo Mixer Tools -->
<svg height="800px" width="800px" version="1.1" id="Capa_1" xmlns="http://www.w3.org/2000/svg" xmlns:xlink="http://www.w3.org/1999/xlink" 
	 viewBox="0 0 82.235 82.235" xml:space="preserve">
<g>
	<path style="fill:#010002;" d="M41.676,19.922v43.24h40.559v-43.24H41.676z M55.164,60.076h-8.568v-4.495h8.568V60.076z
		 M55.164,27.498h-8.568v-4.491h8.568V27.498z M66.91,60.076h-8.571v-4.495h8.571V60.076z M66.91,27.498h-8.571v-4.491h8.571V27.498
		z M78.656,60.076h-8.571v-4.495h8.571V60.076z M78.656,27.498h-8.571v-4.491h8.571V27.498z M39.249,17.495h3.697V9.267H26.841
		V6.669H16.105v2.598H0v8.228h3.697v47.692H0v8.228h16.105v2.151h10.737v-2.151h16.105v-8.228h-3.697V17.495z M35.67,65.194H7.276
		V17.688H35.67V65.194z M14.573,28.472h-4.252v-8.378h4.252V28.472z M14.573,39.774h-4.252v-8.378h4.252V39.774z M14.573,51.072
		h-4.252V42.69h4.252V51.072z M14.573,62.37h-4.252v-8.378h4.252V62.37z"/>
</g>
</svg>